<mxfile host="Electron" modified="2024-03-04T02:48:38.600Z" agent="Mozilla/5.0 (Windows NT 10.0; Win64; x64) AppleWebKit/537.36 (KHTML, like Gecko) draw.io/23.1.5 Chrome/120.0.6099.109 Electron/28.1.0 Safari/537.36" etag="tdZ1DWmsZ-zZ15gVvusY" version="23.1.5" type="device">
  <diagram name="Page-1" id="qNM_hamw8VZ7cXVjBSwP">
    <mxGraphModel dx="1500" dy="887" grid="1" gridSize="10" guides="1" tooltips="1" connect="1" arrows="1" fold="1" page="1" pageScale="1" pageWidth="2500" pageHeight="1000" math="0" shadow="0">
      <root>
        <mxCell id="0" />
        <mxCell id="1" parent="0" />
        <mxCell id="rHiIrlhjogWctJyIBO_F-1" value="myService1&lt;br&gt;Publisher" style="rounded=1;whiteSpace=wrap;html=1;" parent="1" vertex="1">
          <mxGeometry x="240" y="223" width="120" height="60" as="geometry" />
        </mxCell>
        <mxCell id="rHiIrlhjogWctJyIBO_F-6" style="edgeStyle=orthogonalEdgeStyle;rounded=0;orthogonalLoop=1;jettySize=auto;html=1;entryX=0;entryY=0.5;entryDx=0;entryDy=0;" parent="1" source="rHiIrlhjogWctJyIBO_F-2" target="rHiIrlhjogWctJyIBO_F-5" edge="1">
          <mxGeometry relative="1" as="geometry" />
        </mxCell>
        <mxCell id="rHiIrlhjogWctJyIBO_F-8" value="Push" style="edgeLabel;html=1;align=center;verticalAlign=middle;resizable=0;points=[];" parent="rHiIrlhjogWctJyIBO_F-6" vertex="1" connectable="0">
          <mxGeometry x="-0.2608" y="-1" relative="1" as="geometry">
            <mxPoint x="-20" y="-1" as="offset" />
          </mxGeometry>
        </mxCell>
        <mxCell id="rHiIrlhjogWctJyIBO_F-22" style="edgeStyle=orthogonalEdgeStyle;rounded=0;orthogonalLoop=1;jettySize=auto;html=1;exitX=1;exitY=0.5;exitDx=0;exitDy=0;exitPerimeter=0;entryX=0;entryY=0.5;entryDx=0;entryDy=0;" parent="1" source="rHiIrlhjogWctJyIBO_F-2" target="rHiIrlhjogWctJyIBO_F-17" edge="1">
          <mxGeometry relative="1" as="geometry">
            <Array as="points">
              <mxPoint x="830" y="253" />
              <mxPoint x="830" y="469" />
            </Array>
          </mxGeometry>
        </mxCell>
        <mxCell id="rHiIrlhjogWctJyIBO_F-2" value="outbound1&lt;br&gt;Topic" style="outlineConnect=0;dashed=0;verticalLabelPosition=bottom;verticalAlign=top;align=center;html=1;shape=mxgraph.aws3.topic;fillColor=#5294CF;gradientColor=none;" parent="1" vertex="1">
          <mxGeometry x="610" y="220" width="49.5" height="66" as="geometry" />
        </mxCell>
        <mxCell id="rHiIrlhjogWctJyIBO_F-3" style="edgeStyle=orthogonalEdgeStyle;rounded=0;orthogonalLoop=1;jettySize=auto;html=1;entryX=0;entryY=0.5;entryDx=0;entryDy=0;entryPerimeter=0;" parent="1" source="rHiIrlhjogWctJyIBO_F-1" target="rHiIrlhjogWctJyIBO_F-2" edge="1">
          <mxGeometry relative="1" as="geometry" />
        </mxCell>
        <mxCell id="rHiIrlhjogWctJyIBO_F-4" value="outbound1 event" style="shape=message;html=1;html=1;outlineConnect=0;labelPosition=center;verticalLabelPosition=bottom;align=center;verticalAlign=top;" parent="1" vertex="1">
          <mxGeometry x="470" y="173" width="60" height="40" as="geometry" />
        </mxCell>
        <mxCell id="rHiIrlhjogWctJyIBO_F-10" style="edgeStyle=orthogonalEdgeStyle;rounded=0;orthogonalLoop=1;jettySize=auto;html=1;" parent="1" source="rHiIrlhjogWctJyIBO_F-5" target="rHiIrlhjogWctJyIBO_F-9" edge="1">
          <mxGeometry relative="1" as="geometry" />
        </mxCell>
        <mxCell id="rHiIrlhjogWctJyIBO_F-12" value="http://&amp;lt;myservice2-url&amp;gt;/eventMessage" style="edgeLabel;html=1;align=center;verticalAlign=middle;resizable=0;points=[];" parent="rHiIrlhjogWctJyIBO_F-10" vertex="1" connectable="0">
          <mxGeometry x="-0.03" relative="1" as="geometry">
            <mxPoint as="offset" />
          </mxGeometry>
        </mxCell>
        <mxCell id="rHiIrlhjogWctJyIBO_F-5" value="push-myService2&lt;br&gt;Subscription" style="rounded=1;whiteSpace=wrap;html=1;" parent="1" vertex="1">
          <mxGeometry x="880" y="223" width="120" height="60" as="geometry" />
        </mxCell>
        <mxCell id="rHiIrlhjogWctJyIBO_F-7" value="outbound1 event" style="shape=message;html=1;html=1;outlineConnect=0;labelPosition=center;verticalLabelPosition=bottom;align=center;verticalAlign=top;" parent="1" vertex="1">
          <mxGeometry x="740" y="173" width="60" height="40" as="geometry" />
        </mxCell>
        <mxCell id="rHiIrlhjogWctJyIBO_F-9" value="myService2&lt;br&gt;Subscriber" style="rounded=1;whiteSpace=wrap;html=1;" parent="1" vertex="1">
          <mxGeometry x="1320" y="220" width="120" height="60" as="geometry" />
        </mxCell>
        <mxCell id="rHiIrlhjogWctJyIBO_F-11" value="outbound1 event" style="shape=message;html=1;html=1;outlineConnect=0;labelPosition=center;verticalLabelPosition=bottom;align=center;verticalAlign=top;" parent="1" vertex="1">
          <mxGeometry x="1120" y="173" width="60" height="40" as="geometry" />
        </mxCell>
        <mxCell id="rHiIrlhjogWctJyIBO_F-13" style="edgeStyle=orthogonalEdgeStyle;rounded=0;orthogonalLoop=1;jettySize=auto;html=1;entryX=0.558;entryY=-0.017;entryDx=0;entryDy=0;entryPerimeter=0;" parent="1" source="rHiIrlhjogWctJyIBO_F-9" target="rHiIrlhjogWctJyIBO_F-5" edge="1">
          <mxGeometry relative="1" as="geometry">
            <Array as="points">
              <mxPoint x="1380" y="153" />
              <mxPoint x="947" y="153" />
            </Array>
          </mxGeometry>
        </mxCell>
        <mxCell id="rHiIrlhjogWctJyIBO_F-14" value="acked /&amp;nbsp;nacked" style="edgeLabel;html=1;align=center;verticalAlign=middle;resizable=0;points=[];" parent="rHiIrlhjogWctJyIBO_F-13" vertex="1" connectable="0">
          <mxGeometry x="-0.1248" y="-1" relative="1" as="geometry">
            <mxPoint x="-57" as="offset" />
          </mxGeometry>
        </mxCell>
        <mxCell id="rHiIrlhjogWctJyIBO_F-15" value="outbound1-dl&lt;br&gt;Topic" style="outlineConnect=0;dashed=0;verticalLabelPosition=bottom;verticalAlign=top;align=center;html=1;shape=mxgraph.aws3.topic;fillColor=#5294CF;gradientColor=none;" parent="1" vertex="1">
          <mxGeometry x="610" y="433" width="49.5" height="66" as="geometry" />
        </mxCell>
        <mxCell id="rHiIrlhjogWctJyIBO_F-16" style="edgeStyle=orthogonalEdgeStyle;rounded=0;orthogonalLoop=1;jettySize=auto;html=1;entryX=0.5;entryY=0;entryDx=0;entryDy=0;entryPerimeter=0;exitX=0.5;exitY=1;exitDx=0;exitDy=0;" parent="1" source="rHiIrlhjogWctJyIBO_F-5" target="rHiIrlhjogWctJyIBO_F-15" edge="1">
          <mxGeometry relative="1" as="geometry">
            <Array as="points">
              <mxPoint x="940" y="333" />
              <mxPoint x="635" y="333" />
            </Array>
          </mxGeometry>
        </mxCell>
        <mxCell id="rHiIrlhjogWctJyIBO_F-19" style="edgeStyle=orthogonalEdgeStyle;rounded=0;orthogonalLoop=1;jettySize=auto;html=1;" parent="1" source="rHiIrlhjogWctJyIBO_F-17" target="rHiIrlhjogWctJyIBO_F-18" edge="1">
          <mxGeometry relative="1" as="geometry" />
        </mxCell>
        <mxCell id="rHiIrlhjogWctJyIBO_F-20" value="http://&amp;lt;myservice3-url&amp;gt;/eventMessage" style="edgeLabel;html=1;align=center;verticalAlign=middle;resizable=0;points=[];" parent="rHiIrlhjogWctJyIBO_F-19" vertex="1" connectable="0">
          <mxGeometry x="-0.2187" y="3" relative="1" as="geometry">
            <mxPoint x="25" y="3" as="offset" />
          </mxGeometry>
        </mxCell>
        <mxCell id="rHiIrlhjogWctJyIBO_F-17" value="push-myService3&lt;br style=&quot;border-color: var(--border-color);&quot;&gt;Subscription" style="rounded=1;whiteSpace=wrap;html=1;" parent="1" vertex="1">
          <mxGeometry x="880" y="439" width="120" height="60" as="geometry" />
        </mxCell>
        <mxCell id="rHiIrlhjogWctJyIBO_F-24" style="edgeStyle=orthogonalEdgeStyle;rounded=0;orthogonalLoop=1;jettySize=auto;html=1;entryX=0.5;entryY=0;entryDx=0;entryDy=0;" parent="1" source="rHiIrlhjogWctJyIBO_F-18" target="rHiIrlhjogWctJyIBO_F-17" edge="1">
          <mxGeometry relative="1" as="geometry">
            <Array as="points">
              <mxPoint x="1380" y="373" />
              <mxPoint x="940" y="373" />
            </Array>
          </mxGeometry>
        </mxCell>
        <mxCell id="rHiIrlhjogWctJyIBO_F-25" value="acked / nacked" style="edgeLabel;html=1;align=center;verticalAlign=middle;resizable=0;points=[];" parent="rHiIrlhjogWctJyIBO_F-24" vertex="1" connectable="0">
          <mxGeometry x="-0.2622" y="-1" relative="1" as="geometry">
            <mxPoint x="-85" as="offset" />
          </mxGeometry>
        </mxCell>
        <mxCell id="rHiIrlhjogWctJyIBO_F-18" value="myService3&lt;br style=&quot;border-color: var(--border-color);&quot;&gt;Subscriber" style="rounded=1;whiteSpace=wrap;html=1;" parent="1" vertex="1">
          <mxGeometry x="1320" y="439" width="120" height="60" as="geometry" />
        </mxCell>
        <mxCell id="rHiIrlhjogWctJyIBO_F-21" value="outbound1 event" style="shape=message;html=1;html=1;outlineConnect=0;labelPosition=center;verticalLabelPosition=bottom;align=center;verticalAlign=top;" parent="1" vertex="1">
          <mxGeometry x="1120" y="393" width="60" height="40" as="geometry" />
        </mxCell>
        <mxCell id="rHiIrlhjogWctJyIBO_F-23" style="edgeStyle=orthogonalEdgeStyle;rounded=0;orthogonalLoop=1;jettySize=auto;html=1;entryX=0.5;entryY=1;entryDx=0;entryDy=0;entryPerimeter=0;" parent="1" source="rHiIrlhjogWctJyIBO_F-17" target="rHiIrlhjogWctJyIBO_F-15" edge="1">
          <mxGeometry relative="1" as="geometry">
            <Array as="points">
              <mxPoint x="940" y="573" />
              <mxPoint x="635" y="573" />
            </Array>
          </mxGeometry>
        </mxCell>
        <mxCell id="oq44QkE40jMD6NlHh9Kf-16" style="edgeStyle=orthogonalEdgeStyle;rounded=0;orthogonalLoop=1;jettySize=auto;html=1;entryX=0;entryY=0.5;entryDx=0;entryDy=0;" parent="1" source="oq44QkE40jMD6NlHh9Kf-18" target="oq44QkE40jMD6NlHh9Kf-21" edge="1">
          <mxGeometry relative="1" as="geometry" />
        </mxCell>
        <mxCell id="oq44QkE40jMD6NlHh9Kf-17" value="Push" style="edgeLabel;html=1;align=center;verticalAlign=middle;resizable=0;points=[];" parent="oq44QkE40jMD6NlHh9Kf-16" vertex="1" connectable="0">
          <mxGeometry x="-0.2608" y="-1" relative="1" as="geometry">
            <mxPoint x="-20" y="-1" as="offset" />
          </mxGeometry>
        </mxCell>
        <mxCell id="oq44QkE40jMD6NlHh9Kf-18" value="outbound2&lt;br&gt;Topic" style="outlineConnect=0;dashed=0;verticalLabelPosition=bottom;verticalAlign=top;align=center;html=1;shape=mxgraph.aws3.topic;fillColor=#5294CF;gradientColor=none;" parent="1" vertex="1">
          <mxGeometry x="610" y="680" width="49.5" height="66" as="geometry" />
        </mxCell>
        <mxCell id="oq44QkE40jMD6NlHh9Kf-19" style="edgeStyle=orthogonalEdgeStyle;rounded=0;orthogonalLoop=1;jettySize=auto;html=1;" parent="1" source="oq44QkE40jMD6NlHh9Kf-21" target="oq44QkE40jMD6NlHh9Kf-23" edge="1">
          <mxGeometry relative="1" as="geometry" />
        </mxCell>
        <mxCell id="oq44QkE40jMD6NlHh9Kf-20" value="http://&amp;lt;myservice4-url&amp;gt;/eventMessage" style="edgeLabel;html=1;align=center;verticalAlign=middle;resizable=0;points=[];" parent="oq44QkE40jMD6NlHh9Kf-19" vertex="1" connectable="0">
          <mxGeometry x="-0.03" relative="1" as="geometry">
            <mxPoint as="offset" />
          </mxGeometry>
        </mxCell>
        <mxCell id="oq44QkE40jMD6NlHh9Kf-32" style="edgeStyle=orthogonalEdgeStyle;rounded=0;orthogonalLoop=1;jettySize=auto;html=1;" parent="1" source="oq44QkE40jMD6NlHh9Kf-21" target="oq44QkE40jMD6NlHh9Kf-29" edge="1">
          <mxGeometry relative="1" as="geometry">
            <Array as="points">
              <mxPoint x="940" y="793" />
              <mxPoint x="635" y="793" />
            </Array>
          </mxGeometry>
        </mxCell>
        <mxCell id="oq44QkE40jMD6NlHh9Kf-21" value="push-myService4&lt;br&gt;Subscription" style="rounded=1;whiteSpace=wrap;html=1;" parent="1" vertex="1">
          <mxGeometry x="880" y="683" width="120" height="60" as="geometry" />
        </mxCell>
        <mxCell id="oq44QkE40jMD6NlHh9Kf-22" value="outbound2 event" style="shape=message;html=1;html=1;outlineConnect=0;labelPosition=center;verticalLabelPosition=bottom;align=center;verticalAlign=top;" parent="1" vertex="1">
          <mxGeometry x="740" y="633" width="60" height="40" as="geometry" />
        </mxCell>
        <mxCell id="oq44QkE40jMD6NlHh9Kf-23" value="myService4&lt;br&gt;Subscriber" style="rounded=1;whiteSpace=wrap;html=1;" parent="1" vertex="1">
          <mxGeometry x="1320" y="680" width="120" height="60" as="geometry" />
        </mxCell>
        <mxCell id="oq44QkE40jMD6NlHh9Kf-24" value="outbound2 event" style="shape=message;html=1;html=1;outlineConnect=0;labelPosition=center;verticalLabelPosition=bottom;align=center;verticalAlign=top;" parent="1" vertex="1">
          <mxGeometry x="1120" y="633" width="60" height="40" as="geometry" />
        </mxCell>
        <mxCell id="oq44QkE40jMD6NlHh9Kf-25" style="edgeStyle=orthogonalEdgeStyle;rounded=0;orthogonalLoop=1;jettySize=auto;html=1;entryX=0.558;entryY=-0.017;entryDx=0;entryDy=0;entryPerimeter=0;" parent="1" source="oq44QkE40jMD6NlHh9Kf-23" target="oq44QkE40jMD6NlHh9Kf-21" edge="1">
          <mxGeometry relative="1" as="geometry">
            <Array as="points">
              <mxPoint x="1380" y="613" />
              <mxPoint x="947" y="613" />
            </Array>
          </mxGeometry>
        </mxCell>
        <mxCell id="oq44QkE40jMD6NlHh9Kf-26" value="acked /&amp;nbsp;nacked" style="edgeLabel;html=1;align=center;verticalAlign=middle;resizable=0;points=[];" parent="oq44QkE40jMD6NlHh9Kf-25" vertex="1" connectable="0">
          <mxGeometry x="-0.1248" y="-1" relative="1" as="geometry">
            <mxPoint x="-57" as="offset" />
          </mxGeometry>
        </mxCell>
        <mxCell id="oq44QkE40jMD6NlHh9Kf-29" value="outbound2-dl&lt;br&gt;Topic" style="outlineConnect=0;dashed=0;verticalLabelPosition=bottom;verticalAlign=top;align=center;html=1;shape=mxgraph.aws3.topic;fillColor=#5294CF;gradientColor=none;" parent="1" vertex="1">
          <mxGeometry x="610" y="843" width="49.5" height="66" as="geometry" />
        </mxCell>
        <mxCell id="oq44QkE40jMD6NlHh9Kf-30" style="edgeStyle=orthogonalEdgeStyle;rounded=0;orthogonalLoop=1;jettySize=auto;html=1;entryX=0;entryY=0.5;entryDx=0;entryDy=0;entryPerimeter=0;" parent="1" source="rHiIrlhjogWctJyIBO_F-1" target="oq44QkE40jMD6NlHh9Kf-18" edge="1">
          <mxGeometry relative="1" as="geometry">
            <Array as="points">
              <mxPoint x="420" y="253" />
              <mxPoint x="420" y="713" />
            </Array>
          </mxGeometry>
        </mxCell>
        <mxCell id="oq44QkE40jMD6NlHh9Kf-31" value="outbound2 event" style="shape=message;html=1;html=1;outlineConnect=0;labelPosition=center;verticalLabelPosition=bottom;align=center;verticalAlign=top;" parent="1" vertex="1">
          <mxGeometry x="470" y="633" width="60" height="40" as="geometry" />
        </mxCell>
      </root>
    </mxGraphModel>
  </diagram>
</mxfile>
